# xmcd CD database file
#
# Track frame offsets:
#	150
#	23810
#	45123
#	68988
#	77672
#	99147
#	122497
#	139374
#	162381
#	177475
#	191744
#	210275
#	227889
#	243726
#	258125
#
# Disc length: 3657 seconds
#
# Revision: 0
# Processed by: cddbd v1.5.2PL0 Copyright (c) Steve Scherf et al.
# Submitted via: CDex 1.70beta2
#
DISCID=c40e470f
DTITLE=Wolfgang Buschner liest Karl May - Der Ölprinz
DYEAR=2006
DGENRE=Hörbuch Karl May
TTITLE0=Der Ölprinz-CD05-01
TTITLE1=Der Ölprinz-CD05-02
TTITLE2=Der Ölprinz-CD05-03
TTITLE3=Der Ölprinz-CD05-04
TTITLE4=Der Ölprinz-CD05-05
TTITLE5=Der Ölprinz-CD05-06
TTITLE6=Der Ölprinz-CD05-07
TTITLE7=Der Ölprinz-CD05-08
TTITLE8=Der Ölprinz-CD05-09
TTITLE9=Der Ölprinz-CD05-10
TTITLE10=Der Ölprinz-CD05-11
TTITLE11=Der Ölprinz-CD05-12
TTITLE12=Der Ölprinz-CD05-13
TTITLE13=Der Ölprinz-CD05-14
TTITLE14=Der Ölprinz-CD05-15 bws
EXTD=YEAR: 2006
EXTT0=
EXTT1=
EXTT2=
EXTT3=
EXTT4=
EXTT5=
EXTT6=
EXTT7=
EXTT8=
EXTT9=
EXTT10=
EXTT11=
EXTT12=
EXTT13=
EXTT14=
PLAYORDER=
